<svg xmlns="http://www.w3.org/2000/svg" viewBox="0 0 163 47.89"><title>Renaca</title><path d="M84.63,21.89c-3.46,0-5.36,2.71-5.36,6s2.11,5.69,5.4,5.69a5.58,5.58,0,0,0,5.1-3.1l-1.6-.92a3.76,3.76,0,0,1-3.36,2.28,3.58,3.58,0,0,1-3.62-3.69h8.68C90.05,24.83,88.17,21.89,84.63,21.89Zm-3.34,4.63a3.5,3.5,0,0,1,3.36-2.89,3.38,3.38,0,0,1,3.24,2.89Z" style="fill:#fff"/><path d="M103.17,21.89A3.69,3.69,0,0,0,100,23.54h0V22.2H98.09V33.25H100V28c0-2,.16-4.37,2.75-4.37,2.18,0,2.33,1.6,2.33,3.39v6.23h1.88V26.69C106.93,24.1,106.22,21.89,103.17,21.89Z" style="fill:#fff"/><path d="M143.86,25.59h-.05a4.23,4.23,0,0,0-3.42-1.85,4,4,0,0,0-3.9,4.08,3.87,3.87,0,0,0,3.8,4.09,4.28,4.28,0,0,0,3.59-1.9h.05v2.51a6.07,6.07,0,0,1-3.5,1.12,5.71,5.71,0,0,1-5.86-5.82A5.82,5.82,0,0,1,140.46,22a5.9,5.9,0,0,1,3.4,1.11Z" style="fill:#fff"/><rect x="81.99" y="26.52" width="2.15" height="1.6" style="fill:#fff"/><path d="M66.48,25.3a4.63,4.63,0,0,0,4.45-4.89c0-4-3.13-4.88-6.49-4.88H61.88v8.19h-4.7v1.75h4.7v7.78h2V25.47h.5l5.35,7.78h2.42Zm-2.63-1.58V17.36h.59c2.37,0,4.51.28,4.51,3.19,0,2.64-2.07,3.13-4.21,3.17Z" style="fill:#fff"/><path d="M125.86,22.2H124v1.57h0a4.8,4.8,0,0,0-3.79-1.88c-3.31,0-5.31,2.71-5.31,5.86s2,5.8,5.29,5.8a4.66,4.66,0,0,0,3.81-1.83h0v1.53h1.87Zm-5.47,9.61c-2.35,0-3.62-2-3.62-4.21a3.75,3.75,0,0,1,3.6-4,3.7,3.7,0,0,1,3.71,4C124.08,29.86,122.81,31.81,120.39,31.81Z" style="fill:#fff"/><path d="M163,22.2h-1.88v1.57h-.05a4.78,4.78,0,0,0-3.78-1.88c-3.31,0-5.31,2.71-5.31,5.86s2,5.8,5.29,5.8a4.63,4.63,0,0,0,3.8-1.83h.05v1.53H163Zm-5.48,9.61c-2.35,0-3.61-2-3.61-4.21a3.75,3.75,0,0,1,3.59-4,3.69,3.69,0,0,1,3.71,4C161.21,29.86,160,31.81,157.52,31.81Z" style="fill:#fff"/><path d="M2,17.16l-1.5-1,0-.15a21.17,21.17,0,0,1,41.05,0l0,.15-1.51,1L40,16.83A19.63,19.63,0,0,0,21,1.7a19.62,19.62,0,0,0-19,15.13Zm27.19,8.18v-.18c0-.41,0-.82-.06-1.27l0-.26-.26.06a35,35,0,0,1-15.58,0L13,23.63l0,.26c0,.45-.05.86-.06,1.27v.18l.18.05a36.82,36.82,0,0,0,8,.88,36.15,36.15,0,0,0,8-.89Zm-9,22.55h1.7V41.42h-1.7ZM41.94,19.12l-.15-1.41-1.17.8a34.74,34.74,0,0,1-7,3.7l-.17.06,0,.18c.06.42.1.84.13,1.26l0,.31.29-.11a36.27,36.27,0,0,0,6.42-3.2c0,.22,0,.44,0,.65a19.41,19.41,0,0,1-11,17.39l-1.61,1.88.2.62.23-.09A17.64,17.64,0,0,0,30,40.31l.05,0a21.09,21.09,0,0,0,12-18.92A21.73,21.73,0,0,0,41.94,19.12ZM12.69,38.75a19.4,19.4,0,0,1-11-17.39c0-.21,0-.43,0-.65a35.85,35.85,0,0,0,6.41,3.2l.29.11,0-.31c0-.42.08-.84.13-1.26l0-.18-.16-.06a34.82,34.82,0,0,1-7-3.7l-1.17-.8L.12,19.12A21.73,21.73,0,0,0,0,21.36,21.09,21.09,0,0,0,12,40.28l0,0a16,16,0,0,0,1.86.86l.23.09.2-.62-1.53-1.82Zm19.58-13.4a21.71,21.71,0,0,1-6.8,15.7,5.49,5.49,0,0,1-.76.77l-.19.15-.14-.19a4.74,4.74,0,0,0-.38-.44l-.12-.12.08-.15a10,10,0,0,0,.95-2.54A5,5,0,0,0,25,38v-.09a4,4,0,0,0-4-4.52h0a4,4,0,0,0-4,4.52V38a3.52,3.52,0,0,0,.11.49,10,10,0,0,0,1,2.56l.08.15-.12.12a4.74,4.74,0,0,0-.38.44l-.14.19-.19-.15a5.88,5.88,0,0,1-.78-.8,21.54,21.54,0,0,1,4-34.36L21,6.41l.45.25A21.68,21.68,0,0,1,32.27,25.35Zm-11,6.38A5.73,5.73,0,0,1,26.74,37a19.91,19.91,0,0,0,3.83-11.69A20,20,0,0,0,21,8.37,19.83,19.83,0,0,0,15.32,37a5.73,5.73,0,0,1,5.49-5.31h.44Z" style="fill:#009b8d"/></svg>